<svg xmlns="http://www.w3.org/2000/svg" viewBox="0 0 1280 1280" [attr.width]="width" [attr.height]="height">
  <path d="M0 0 C1.90845703 0.00773437 1.90845703 0.00773437 3.85546875 0.015625 C7.61487092 0.04634534 11.36737243 0.13223106 15.125 0.25 C16.2996582 0.28287109 17.47431641 0.31574219 18.68457031 0.34960938 C24.66551823 0.64287766 28.90861587 1.29523831 34.07763672 4.29638672 C38.31140637 6.26837625 43.08796672 6.37006588 47.6875 6.8125 C62.33557918 8.27259792 62.33557918 8.27259792 68.75 13.3125 C73.11170873 15.8164439 77.11484425 16.11642055 82.0546875 16.7578125 C86.1553119 17.4151645 89.60361658 18.52916692 92.40625 21.69921875 C94.71341416 23.78091005 97.09499156 24.5455829 100 25.625 C104.82957978 27.55104798 107.5369831 29.46803624 111.125 33.25 C112.55969325 33.94677263 114.02188224 34.58832999 115.5 35.1875 C119.52109754 36.83188922 122.26025241 38.86790317 125.42578125 41.8046875 C127.17835527 43.29538264 128.90347984 44.30976058 130.9375 45.375 C134.125 47.25 134.125 47.25 135.078125 49.21484375 C136.37113942 51.72850238 137.59894475 52.36167604 140.0625 53.6875 C143.65855348 55.79219198 145.06800028 57.6035005 147.125 61.25 C148.07375 61.86875 149.0225 62.4875 150 63.125 C153.32683689 65.38724908 154.79982339 67.43911011 156.97265625 70.72265625 C158.42062984 72.6418348 159.98508498 73.21455725 162.125 74.25 C162.764375 75.219375 163.40375 76.18875 164.0625 77.1875 C165.84750144 80.33692406 165.84750144 80.33692406 168.56640625 81.609375 C171.65048923 83.58695493 172.53390779 85.29443277 174.125 88.5625 C175.7917147 91.83166019 177.2993063 94.69576948 179.8125 97.375 C182.42099775 100.6179972 183.27060113 103.30940318 184.25390625 107.296875 C185.39208463 109.84884446 186.65551858 110.07900307 189.125 111.25 C190.3203125 112.984375 190.3203125 112.984375 191.25 115 C191.74886719 116.06734375 191.74886719 116.06734375 192.2578125 117.15625 C193.125 119.25 193.125 119.25 194.125 122.5 C194.9412462 125.34816984 194.9412462 125.34816984 197.125 127.25 C201.00732455 131.13232455 201.22607001 135.95946859 201.9375 141.1875 C202.66843099 145.9239328 203.66146311 148.92535772 206.90625 152.45703125 C211.3040637 158.92689179 210.74943328 167.86312943 211.16015625 175.36132812 C211.52545791 180.53413749 212.23037003 184.79795607 214.171875 189.6171875 C217.15053521 197.92917735 216.64936981 206.5361357 216.53662109 215.25219727 C216.49977434 218.20558759 216.49560503 221.15773023 216.49609375 224.11132812 C216.48627233 226.00001082 216.47461961 227.88868508 216.4609375 229.77734375 C216.45871185 230.65446518 216.45648621 231.53158661 216.45419312 232.43528748 C216.38588243 236.83480299 216.11921469 240.23324643 214.125 244.25 C212.74416825 249.54318839 212.12664783 254.95052445 211.66015625 260.390625 C211.58087891 261.31166016 211.50160156 262.23269531 211.41992188 263.18164062 C211.26762736 265.02837163 211.12658311 266.87607281 210.99804688 268.72460938 C210.43620162 275.67808867 209.33564603 281.26590379 204.125 286.25 C202.41468389 289.88842529 201.80884975 293.14804399 201.375 297.125 C200.57363132 302.39480045 199.29201357 304.69101677 195.5625 308.33984375 C193.6459137 310.88661196 193.29863135 313.19954968 192.6875 316.3125 C191.5694707 321.68303362 190.20790409 323.58905329 185.82421875 326.6953125 C183.0686962 329.21645727 182.29481256 332.40947058 181.08203125 335.8671875 C179.72757337 339.23951119 177.52880426 341.55304887 175.125 344.25 C173.84106853 346.31207176 172.62054119 348.39636936 171.43359375 350.515625 C170.125 352.25 170.125 352.25 168.125 353.2421875 C165.64117236 354.49380377 165.00580484 355.70734753 163.6875 358.125 C161.59410368 361.69533238 159.41972344 363.71559735 156.125 366.25 C155.465 367.260625 154.805 368.27125 154.125 369.3125 C151.97754906 372.46656856 150.35500257 373.35926679 147.125 375.25 C146.320625 376.24 145.51625 377.23 144.6875 378.25 C141.97709383 381.42315844 139.79203919 382.4164804 136.125 384.25 C135.691875 385.03375 135.25875 385.8175 134.8125 386.625 C132.58647593 390.08770411 129.98458554 391.14984705 126.37890625 392.99609375 C123.88498924 394.27602836 123.88498924 394.27602836 121.25 396.8125 C118.21839655 399.17715069 116.1507587 400.05710759 112.5625 401.25 C109.03537715 402.42570762 107.38075868 402.98751083 104.75 405.6875 C101.11197821 409.23890222 97.04754669 410.33222431 92.28125 411.94140625 C89.07324531 413.08771879 89.07324531 413.08771879 86.6875 415.28515625 C83.51766492 417.71568528 80.45223296 418.3605659 76.625 419.125 C69.82613176 420.63490094 64.04069285 422.8506362 57.796875 425.98046875 C53.84145097 427.85987344 50.2839565 428.39860153 45.93359375 428.71484375 C44.91499268 428.79154297 43.8963916 428.86824219 42.84692383 428.94726562 C41.22113403 429.06618164 41.22113403 429.06618164 39.5625 429.1875 C31.514079 429.80817985 23.46991201 430.44571218 15.4375 431.25 C14.67945068 431.32081787 13.92140137 431.39163574 13.14038086 431.46459961 C8.87150054 431.90674229 5.17477857 432.88521905 1.125 434.25 C-5.75753817 434.97398284 -11.69366459 434.24215915 -18.20703125 432.046875 C-27.12512578 429.38319816 -36.66781726 428.98933903 -45.92602539 428.67919922 C-50.53290454 428.48611962 -54.56637288 427.91851204 -58.875 426.25 C-59.6278125 425.41597656 -60.380625 424.58195312 -61.15625 423.72265625 C-65.1558051 420.08512985 -69.12833756 420.15298793 -74.375 419.6875 C-81.83557988 418.99480517 -86.13736892 418.34965294 -91.3671875 412.61328125 C-93.39989126 410.77542215 -95.39298142 410.25080067 -98 409.4375 C-102.83283586 407.77561573 -106.61481517 405.63971818 -110.7578125 402.68359375 C-112.7704693 401.32078001 -114.72830397 400.3139449 -116.9375 399.3125 C-120.76567363 397.47769489 -123.61205005 395.04143743 -126.73046875 392.1875 C-129.11033334 390.03738555 -131.56533536 388.01252973 -134.0625 386 C-134.86042969 385.35546875 -135.65835938 384.7109375 -136.48046875 384.046875 C-138.85587372 382.1902071 -138.85587372 382.1902071 -141.5546875 380.69921875 C-143.875 379.25 -143.875 379.25 -145.8125 376.3125 C-148.12191527 372.88336823 -150.4593993 371.50284301 -153.875 369.25 C-154.875 367.58333333 -155.875 365.91666667 -156.875 364.25 C-157.844375 363.610625 -158.81375 362.97125 -159.8125 362.3125 C-163.24163177 360.00308473 -164.62215699 357.6656007 -166.875 354.25 C-167.679375 353.8375 -168.48375 353.425 -169.3125 353 C-172.87478228 350.56722186 -173.90662104 347.52662458 -175.68359375 343.671875 C-176.8404256 341.09455949 -176.8404256 341.09455949 -179 338.625 C-180.81356836 336.32781341 -181.38940991 334.91436978 -182.25 332.1875 C-183.39205753 328.81152775 -183.68407709 328.37330438 -186.875 326.3125 C-191.14758612 323.37509704 -191.70291083 320.14017334 -192.875 315.25 C-193.07996094 314.39664062 -193.28492188 313.54328125 -193.49609375 312.6640625 C-193.98401774 310.5306569 -194.44387159 308.39549783 -194.875 306.25 C-195.535 306.25 -196.195 306.25 -196.875 306.25 C-199.17857169 302.02678523 -200.98985271 298.36456141 -201.875 293.625 C-202.68840187 289.41402572 -204.39886368 286.77661839 -206.875 283.25 C-209.46194376 277.31105142 -210.48245461 271.99122557 -211 265.5625 C-211.14637457 263.9125761 -211.29475334 262.26282856 -211.4453125 260.61328125 C-211.54888062 259.46134277 -211.54888062 259.46134277 -211.65454102 258.28613281 C-211.854711 256.14116852 -211.854711 256.14116852 -212.41015625 253.62890625 C-213.04455387 250.38228312 -213.07022684 247.17875254 -213.1875 243.875 C-213.43633103 237.85164653 -213.43633103 237.85164653 -216 232.5 C-218.36257316 228.40487319 -217.93334723 226.42771272 -217.2890625 221.8671875 C-216.94911118 218.89742405 -216.78258017 216.0525724 -216.7109375 213.0703125 C-216.48658239 203.91898584 -216.25771623 196.0132232 -212.7890625 187.44140625 C-211.29681151 182.23128208 -211.30341231 176.93619353 -211.203125 171.54052734 C-211.04064779 164.2363064 -210.80422828 156.84202015 -205.875 151.0625 C-202.28478187 146.15731041 -201.96734848 141.44497602 -201.58984375 135.484375 C-200.68814327 131.40454987 -199.00037048 129.93296644 -195.875 127.25 C-193.2291083 124.6041083 -193.27171234 122.59805768 -192.625 118.9375 C-191.32173511 112.92141866 -189.86430282 110.94208409 -184.875 107.25 C-183.45245152 104.78257077 -182.28545206 102.25380943 -181.09375 99.66796875 C-179.99733049 97.49270056 -178.928327 95.92310017 -177.3125 94.125 C-175.22176271 91.65900217 -174.17219925 89.93300917 -172.875 87.0625 C-171.1310975 83.3435754 -169.42739492 82.32945068 -165.875 80.25 C-164.50646617 78.25525826 -163.32972314 76.21950287 -162.18359375 74.08984375 C-160.63917748 71.91844057 -159.22901964 71.4129978 -156.875 70.25 C-155.73727591 68.61145128 -155.73727591 68.61145128 -154.9375 66.75 C-153.08802995 63.21787485 -151.61069005 62.65088377 -147.875 61.25 C-147.276875 60.321875 -146.67875 59.39375 -146.0625 58.4375 C-143.62182236 54.881084 -141.47665387 53.57963919 -137.828125 51.46484375 C-135.08923916 49.76125676 -133.05761761 47.60958661 -130.875 45.25 C-129.20833333 43.58333333 -127.54166667 41.91666667 -125.875 40.25 C-124.97587891 39.22712891 -124.97587891 39.22712891 -124.05859375 38.18359375 C-121.50590792 35.92316533 -119.81687444 35.51607657 -116.5 34.875 C-111.70786852 33.71806061 -109.66794523 32.42712069 -106.546875 28.74609375 C-102.9299489 25.50945193 -96.74874429 23.25 -91.875 23.25 C-91.38 21.765 -91.38 21.765 -90.875 20.25 C-87.0841326 17.79105899 -83.28822463 16.84546239 -78.9375 15.875 C-74.21186066 14.77371044 -71.24157567 13.37367152 -67.4921875 10.38671875 C-62.01533143 6.53704455 -54.37796504 6.9432943 -47.9765625 6.53125 C-44.78229654 6.24159364 -41.95409225 5.59582943 -38.88671875 4.71484375 C-35.65398038 3.96786149 -32.38157263 3.85236068 -29.07421875 3.69140625 C-26.1689906 3.29056281 -23.73734364 2.60059864 -20.94921875 1.73046875 C-13.97058549 -0.23258437 -7.202637 -0.11605457 0 0 Z "
        fill=""
        [attr.fill]="circleColor ?? 'currentColor'"
        transform="translate(653.875,389.75)"/>
  <path d="M0 0 C1.66119873 0.07359741 1.66119873 0.07359741 3.35595703 0.14868164 C10.95815698 0.60112745 17.44448344 1.82982562 24.4609375 4.74609375 C35.83385785 8.84801221 48.11037879 8.59026788 60.0546875 9.02905273 C81.89030439 9.85779017 81.89030439 9.85779017 87.9375 16 C93.27596303 18.21848023 98.87669071 18.86782602 104.57226562 19.59179688 C109.48538996 20.34664347 112.32109189 21.7970377 116.20678711 24.84790039 C119.08850597 26.76620076 122.12195057 27.06705275 125.5 27.5625 C130.97356273 28.37485066 134.57986339 29.50180482 138.9375 33 C138.9375 33.66 138.9375 34.32 138.9375 35 C139.53699463 35.06993164 140.13648926 35.13986328 140.75415039 35.21191406 C143.50494779 35.54199914 146.25220794 35.89579956 149 36.25 C149.94294922 36.35957031 150.88589844 36.46914062 151.85742188 36.58203125 C157.80677744 37.3697508 161.94301137 38.64725035 166.9375 42 C166.9375 42.66 166.9375 43.32 166.9375 44 C167.50597656 44.10957031 168.07445312 44.21914062 168.66015625 44.33203125 C180.92073506 46.84964593 180.92073506 46.84964593 184.765625 50.94921875 C187.32625051 53.36707557 189.57865096 54.23618238 192.875 55.4375 C198.65385784 57.70181209 198.65385784 57.70181209 201.375 60.5625 C204.38694939 63.42752503 206.45780528 63.86142612 210.4375 64.9375 C217.45660444 66.87326199 217.45660444 66.87326199 219.6875 70.0625 C222.45813291 73.67971518 224.37800089 73.97707793 228.61328125 75.16015625 C231.89336619 76.34539703 234.1992891 78.33983025 236.88671875 80.515625 C239.71302015 82.56132887 242.7169363 83.78707354 245.95703125 85.04296875 C248.11997992 86.08818063 249.41891742 87.14608372 250.9375 89 C250.9375 89.66 250.9375 90.32 250.9375 91 C251.65164063 91.07605469 252.36578125 91.15210938 253.1015625 91.23046875 C256.68181723 92.20197038 258.5298455 93.87668066 261.3125 96.3125 C264.41771655 98.9615594 267.30129071 101.38547566 270.9375 103.25 C274.29804655 105.21031882 274.98350299 106.74333831 276.9375 110 C278.69184333 110.9888117 280.44846372 111.97538695 282.23828125 112.8984375 C284.93392466 114.64595806 286.23180857 117.32775009 287.9375 120 C288.7625 120.495 289.5875 120.99 290.4375 121.5 C292.9375 123 292.9375 123 294.8125 126 C297.44627114 129.71826513 299.77076843 130.31868726 303.9375 132 C305.64529973 133.62449243 307.31300757 135.29220027 308.9375 137 C309.8557959 137.59852783 310.7740918 138.19705566 311.72021484 138.8137207 C315.0966526 141.10815082 317.96210661 143.68429849 320.8515625 146.54296875 C321.38848724 147.07086502 321.92541199 147.59876129 322.47860718 148.14265442 C323.60560867 149.25523345 324.72989296 150.37057105 325.8515625 151.48852539 C327.55282403 153.17789169 329.27186005 154.8476605 330.9921875 156.51757812 C340.95550772 166.33853919 340.95550772 166.33853919 343.25341797 173.32299805 C344.32786387 175.95696268 346.51950087 176.67010048 348.9375 178 C349.96875 179.6171875 349.96875 179.6171875 350.9375 181.5 C352.72460107 184.95169924 354.55452222 186.05478777 357.9375 188 C358.576875 188.969375 359.21625 189.93875 359.875 190.9375 C361.72716264 194.15772482 361.72716264 194.15772482 364.875 195.75 C368.67421212 198.54125788 369.73179228 201.25720241 371.64453125 205.47265625 C373.24071122 208.59268175 375.29150811 210.85288277 377.66015625 213.40234375 C379.4797034 215.67816877 380.04413132 218.2560819 380.9375 221 C381.57816406 221.30164063 382.21882813 221.60328125 382.87890625 221.9140625 C385.49258836 223.29281701 385.76881618 224.32195209 386.75 227.0625 C388.22948161 230.73772018 389.94102197 233.4161856 392.5 236.4375 C396.20972918 240.96543498 397.66896665 245.35014761 398.9375 251 C399.26922924 252.33373333 399.60201425 253.66720662 399.9375 255 C400.5975 255 401.2575 255 401.9375 255 C403.15625 256.57421875 403.15625 256.57421875 404.4375 258.6875 C404.88222656 259.4196875 405.32695313 260.151875 405.78515625 260.90625 C406.9375 263 406.9375 263 407.875 265.6875 C408.85216274 268.30134338 408.85216274 268.30134338 411.875 270.1875 C416.07381856 273.4007768 416.96933774 277.98933567 417.9375 283 C417.9375 283.99 417.9375 284.98 417.9375 286 C418.56398438 286.23460937 419.19046875 286.46921875 419.8359375 286.7109375 C422.56718773 288.38623968 422.77588706 289.5638436 423.5625 292.625 C423.80613281 293.52089844 424.04976562 294.41679687 424.30078125 295.33984375 C424.68602074 296.94934123 425.04540629 298.56575165 425.35546875 300.19140625 C426.13302018 304.12535458 427.10329961 306.39663172 429.8828125 309.171875 C433.43330388 313.16983139 434.2086238 316.87747231 435 322.0625 C436.04034493 328.695387 437.5577628 331.74704416 441.9375 337 C442.96374261 339.96458417 443.48546662 342.9727651 444 346.0625 C445.00219039 351.93658242 445.95925503 355.38617743 449.9375 360 C452.7721756 367.83504335 453.46245681 376.38661422 454.20361328 384.64331055 C454.77900606 390.7515878 455.88030601 396.35214186 458.9375 401.75 C461.71560584 407.80852602 461.86269488 414.24607207 462.4453125 420.796875 C462.91916092 426.07918527 463.60437033 431.31596588 464.375 436.5625 C464.48529541 437.35825439 464.59559082 438.15400879 464.70922852 438.97387695 C465.30103479 442.941998 466.10060599 446.5339128 467.4609375 450.30859375 C470.08113423 458.71319753 469.80519469 467.77282739 470.125 476.5 C470.20462831 478.46517431 470.2843823 480.43034353 470.36425781 482.39550781 C470.83527632 494.51092311 471.13935624 506.62547443 471.1875 518.75 C471.19676514 520.06548828 471.20603027 521.38097656 471.21557617 522.73632812 C471.18951065 530.71339865 470.52659664 538.39657912 469.40893555 546.27929688 C468.7825773 551.22269391 468.55841367 556.12949163 468.37890625 561.109375 C467.9375 564 467.9375 564 466.46875 565.86328125 C464.15368499 569.09374186 464.17939897 572.58700988 463.875 576.4375 C463.79830078 577.26572266 463.72160156 578.09394531 463.64257812 578.94726562 C463.39572017 581.63059155 463.1661371 584.31506532 462.9375 587 C460.1116573 618.8258427 460.1116573 618.8258427 454.9375 624 C453.72520734 626.42458532 453.67036789 628.63788721 453.44311523 631.30786133 C452.67295893 639.80100101 450.50733011 645.71225345 445.9375 653 C444.99878331 655.81615008 444.70903532 657.95771424 444.5078125 660.89453125 C444.43433594 661.85037109 444.36085938 662.80621094 444.28515625 663.79101562 C444.13761897 665.79312241 443.99690748 667.79574478 443.86328125 669.79882812 C443.35115662 676.26114659 442.5162877 681.1716522 438 686.125 C435.87296577 689.08995681 435.11079035 691.34574727 434.0625 694.8125 C432.5313737 699.76153422 430.66344258 702.93147083 427.3828125 706.86328125 C425.01325418 710.36638504 424.07847313 714.30495281 422.8671875 718.32421875 C421.76882198 721.48548087 420.01778093 723.39964883 417.9375 726 C417.24738776 727.9641656 416.60693785 729.94606136 416 731.9375 C414.41737361 737.04534908 412.36325382 739.88909542 408.9375 744 C407.77867418 747.03267182 406.82666726 750.07572802 405.9296875 753.1953125 C404.94296455 755.98455298 403.93873761 757.83285669 401.9375 760 C401.2775 760 400.6175 760 399.9375 760 C399.69 760.845625 399.4425 761.69125 399.1875 762.5625 C397.76509174 766.47412272 396.24920609 769.53244087 393.9375 773 C393.26074219 773.14824219 392.58398438 773.29648437 391.88671875 773.44921875 C391.24347656 773.63097656 390.60023438 773.81273437 389.9375 774 C389.04783075 775.78693778 389.04783075 775.78693778 388.625 778 C387.2235158 782.85899194 384.84452974 785.95019181 381.63671875 789.796875 C380.00366211 791.9142174 378.91332524 793.8861913 377.8125 796.3125 C376.53062438 799.10633148 375.9650893 799.97861829 373.4375 801.9375 C370.30511915 804.5217142 369.53045438 807.00032338 368.03515625 810.69921875 C366.59538337 813.71710567 364.6413759 815.86629959 362.3828125 818.30078125 C360.89211736 820.05335527 359.87773942 821.77847984 358.8125 823.8125 C356.9375 827 356.9375 827 354.96875 827.95703125 C352.47093882 829.23956122 351.86734818 830.42262577 350.5625 832.875 C348.27029105 836.80146904 345.79881506 838.56569268 341.9375 841 C341.4425 841.825 340.9475 842.65 340.4375 843.5 C338.9375 846 338.9375 846 336 847.9375 C332.56019421 850.2541039 331.16674048 852.54827281 328.9375 856 C327.27083333 857.33333333 325.60416667 858.66666667 323.9375 860 C323.256875 861.03125 322.57625 862.0625 321.875 863.125 C319.9375 866 319.9375 866 317.9375 866.9375 C315.16764383 868.40898609 314.4786545 870.63808859 313.07421875 873.3359375 C311.32366305 875.89860667 308.67785343 876.65897598 305.9375 878 C305.2259375 879.4540625 305.2259375 879.4540625 304.5 880.9375 C302.64122607 884.5806969 301.15005337 885.23402132 297.6328125 887 C295.13086788 888.47580143 293.73048039 890.74431499 291.9375 893 C290.9475 893.474375 289.9575 893.94875 288.9375 894.4375 C285.71042088 895.75843716 285.71042088 895.75843716 284.375 898.9375 C281.4535098 902.60809026 279.88392864 902.8152771 275.4375 904 C270.23129786 905.28984377 270.23129786 905.28984377 266.5 909 C265.984375 909.99 265.46875 910.98 264.9375 912 C262.95674973 913.36176581 260.95670337 914.69593116 258.9375 916 C258.2775 916.845625 257.6175 917.69125 256.9375 918.5625 C254.9375 921 254.9375 921 252 922.4375 C248.72389345 923.81823154 248.72389345 923.81823154 246.75 927 C243.82698256 930.88466162 240.04376376 931.13949724 235.49609375 932.16015625 C232.61964831 932.85301583 232.61964831 932.85301583 230.5 935.9375 C226.6468658 940.54246526 221.64155812 941.56766635 215.9375 943 C215.2775 943 214.6175 943 213.9375 943 C213.69 943.598125 213.4425 944.19625 213.1875 944.8125 C210.85151348 948.9004764 207.92040227 950.06396722 203.5625 951.375 C200.19960602 952.41563494 198.74022505 953.1643958 195.9375 955.5 C193.11861133 957.84907389 191.87024034 958.47700992 188.5 959.4375 C185.08339066 960.42905329 183.18500678 961.47770407 180.6875 964 C176.71088523 967.76291818 172.27283416 968.32589923 167.02734375 969.359375 C162.10644245 970.37963772 158.27453648 971.97390224 154.25 975.0625 C150.83656401 977.05903803 148.97595653 977.36403418 145.125 977.8125 C140.5191193 978.43036205 138.22628717 979.23366947 134.875 982.4375 C129.80047869 986.97098779 124.31809231 987.0959466 117.82055664 987.86474609 C112.19116608 988.59947354 108.84541051 989.73682762 104.59375 993.640625 C99.91541527 997.48039029 93.1197209 997.05167272 87.375 997.3125 C82.01542931 997.62810641 77.30785604 998.6478243 72.25 1000.375 C52.16118361 1007.08841201 31.64339291 1006.42280606 10.72661257 1006.33711338 C6.27782158 1006.32188037 1.82903121 1006.32324688 -2.61978149 1006.32244873 C-10.0784321 1006.31877771 -17.53698949 1006.30391723 -24.99560547 1006.28125 C-34.53464608 1006.25231703 -44.07361214 1006.24201595 -53.61269188 1006.2375679 C-61.868125 1006.23357269 -70.12354231 1006.22108104 -78.37896395 1006.20722103 C-81.00831217 1006.20314843 -83.63765986 1006.20020971 -86.26700974 1006.19742584 C-90.41224184 1006.19248808 -94.55743023 1006.18221104 -98.70264053 1006.16798782 C-100.21299596 1006.1635144 -101.7233572 1006.16063813 -103.23371887 1006.15958023 C-126.26928498 1006.13984437 -126.26928498 1006.13984437 -137.0625 1003 C-140.13957276 1002.7428971 -143.20764858 1002.56418536 -146.29296875 1002.44140625 C-149.0625 1002 -149.0625 1002 -150.9140625 1000.55859375 C-154.06175617 998.27508507 -157.49130026 998.0392917 -161.25 997.5 C-167.43543531 996.50591218 -173.26714181 995.48372494 -179.0625 993 C-179.3925 992.01 -179.7225 991.02 -180.0625 990 C-181.01503662 989.84966309 -181.01503662 989.84966309 -181.98681641 989.69628906 C-184.88971163 989.22932689 -187.7883893 988.73988756 -190.6875 988.25 C-191.68652344 988.09273437 -192.68554688 987.93546875 -193.71484375 987.7734375 C-199.48382856 986.78010237 -203.30515929 985.57141337 -208.0625 982 C-213.97893937 979.05912041 -219.55872933 978.08685034 -226.00976562 977.18359375 C-230.07096052 976.55322095 -233.14143154 976.02126342 -236.0625 973 C-236.0625 972.34 -236.0625 971.68 -236.0625 971 C-236.79855469 970.81824219 -237.53460938 970.63648438 -238.29296875 970.44921875 C-244.85827886 968.75802262 -249.70049718 967.2495265 -254.6875 962.5 C-257.45200587 960.09266543 -259.94790139 959.38371021 -263.5 958.5625 C-267.37891297 957.65012128 -269.67539151 956.81768543 -272.5 954 C-276.21699473 950.32811443 -280.25082432 949.76855733 -285.29296875 948.93359375 C-288.83239631 947.74047219 -289.77252051 945.88774765 -292.0625 943 C-295.09038963 941.51836051 -295.09038963 941.51836051 -298.4375 940.5 C-303.75905655 938.60538333 -306.97019617 936.79999641 -311.0625 933 C-312.2770667 932.30709101 -313.5071208 931.64073897 -314.75 931 C-318.0625 929 -318.0625 929 -319.5 926.5625 C-321.50732183 923.27049219 -323.87172209 922.15203017 -327.15625 920.25390625 C-329.0625 919 -329.0625 919 -331 916.4375 C-333.60993473 913.35303169 -336.21560255 912.45961278 -339.90234375 910.9609375 C-342.68319288 909.72388707 -344.72022208 907.93237928 -347.0625 906 C-348.57525953 905.19301255 -350.09696797 904.40268134 -351.625 903.625 C-355.80213703 901.39167921 -357.52780237 899.02055487 -360.0625 895 C-361.0525 894.505 -362.0425 894.01 -363.0625 893.5 C-366.7801999 891.64115005 -367.7868877 889.41341845 -370.0625 886 C-372.04570018 884.96708324 -374.04597806 883.9662501 -376.0625 883 C-377.44118281 881.37064759 -378.77524093 879.70250393 -380.0625 878 C-380.908125 877.360625 -381.75375 876.72125 -382.625 876.0625 C-385.0625 874 -385.0625 874 -386.5 871 C-388.41763486 867.31814106 -390.61870912 866.22411494 -394.0625 864 C-395.0625 862.33333333 -396.0625 860.66666667 -397.0625 859 C-398.031875 858.360625 -399.00125 857.72125 -400 857.0625 C-403.43832726 854.74689185 -404.78508382 852.41612427 -407.0625 849 C-409.05621825 847.65729179 -411.0559562 846.32346506 -413.0625 845 C-414.08116229 843.34467377 -415.08060813 841.67739862 -416.0625 840 C-417.0525 839.175 -418.0425 838.35 -419.0625 837.5 C-422.0625 835 -422.0625 835 -423.5625 832.4375 C-424.94231224 829.7682733 -424.94231224 829.7682733 -427.9375 828.3125 C-431.18755593 825.90745861 -431.67275994 825.04381351 -433.1875 821.5 C-435.38248616 816.60626036 -438.26647932 813.58867793 -442.125 810 C-446.77266265 805.66700834 -449.27307248 802.1854131 -451.21875 796.02734375 C-452.52582694 792.88672833 -455.27282093 791.84118818 -458.0625 790 C-459.7898062 787.30215293 -461.23380113 784.5334886 -462.6796875 781.67578125 C-464.07155033 778.83242568 -464.07155033 778.83242568 -466.3125 775.8125 C-467.95144302 773.17848444 -468.42388031 771.70459548 -469 768.75 C-469.350625 767.5125 -469.70125 766.275 -470.0625 765 C-472.44369246 763.59742124 -472.44369246 763.59742124 -475.0625 763 C-479.33846743 759.91239077 -479.20120318 754.89887715 -480.0234375 750.03125 C-481.30245859 746.29997043 -482.61329261 745.70553225 -486.0625 744 C-487.42898319 741.62663446 -487.98992255 739.46563734 -488.41015625 736.76953125 C-489.35556663 730.84924294 -491.01776183 727.18583153 -494.546875 722.36328125 C-496.74696037 718.93273577 -497.84732337 715.26771852 -499.1328125 711.421875 C-499.9836301 708.83946826 -499.9836301 708.83946826 -502.0625 706.5 C-504.71530653 703.18399184 -505.75650653 699.69606855 -507.12890625 695.70703125 C-508.7175731 691.10056209 -510.57819439 686.81726572 -513.0625 682.625 C-517.15119427 674.63632043 -518.34244963 663.87440342 -518.0625 655 C-519.0525 654.67 -520.0425 654.34 -521.0625 654 C-523.68053295 649.76217687 -524.50918121 646.10120267 -525 641.1875 C-525.76931179 635.09711501 -527.25553902 630.40879789 -530.0625 625 C-532.73064411 619.23072347 -534.1361662 614.15785109 -534.30859375 607.7890625 C-534.33985352 606.79865967 -534.37111328 605.80825684 -534.40332031 604.7878418 C-534.43522461 603.744104 -534.46712891 602.70036621 -534.5 601.625 C-534.62533448 584.90963088 -534.62533448 584.90963088 -539.546875 569.28125 C-543.01257317 561.91507291 -543.1450753 554.38433458 -543.45898438 546.37426758 C-543.56280028 543.80506885 -543.70862981 541.24065656 -543.859375 538.67382812 C-543.93999292 537.01834868 -544.01820186 535.3627498 -544.09375 533.70703125 C-544.13729614 532.95162552 -544.18084229 532.19621979 -544.22570801 531.41792297 C-544.43947026 524.99805186 -543.20288817 519.56125101 -538.9765625 514.50390625 C-538.22117187 513.86324219 -537.46578125 513.22257813 -536.6875 512.5625 C-535.93726563 511.90378906 -535.18703125 511.24507812 -534.4140625 510.56640625 C-531.90427122 508.89460176 -530.03099877 508.37237352 -527.0625 508 C-526.7325 507.01 -526.4025 506.02 -526.0625 505 C-523.01900719 503.06323185 -521.01735327 501.95558822 -517.375 502.125 C-514.89189293 503.06455403 -513.66251319 503.89471949 -512.0625 506 C-512.0625 506.66 -512.0625 507.32 -512.0625 508 C-510.7321875 508.37125 -510.7321875 508.37125 -509.375 508.75 C-503.03937876 511.14080047 -498.15585444 515.99471953 -495.0625 522 C-492.5917593 530.11657357 -492.704521 538.5290214 -492.5625 546.9375 C-492.66741411 563.17044486 -492.66741411 563.17044486 -487.01171875 577.96484375 C-483.55112967 585.38446066 -483.9928866 594.7385444 -483.625 602.8125 C-483.33053726 608.99073919 -482.60651251 614.33429529 -480.0625 620 C-479.71574219 620.80179688 -479.36898437 621.60359375 -479.01171875 622.4296875 C-478.33172973 623.97758979 -477.63922549 625.52010534 -476.9296875 627.0546875 C-474.571006 632.34578383 -474.755253 637.52061153 -474.5390625 643.23828125 C-473.88426513 648.40688671 -472.00271254 651.71026607 -468.9609375 655.8828125 C-466.75703089 659.50157273 -466.20931438 662.7598152 -465.6875 666.875 C-464.78405541 672.72330235 -463.51719196 676.48007031 -459.53515625 680.8828125 C-457.5315037 683.76339521 -456.91943487 686.60811554 -456.0625 690 C-454.6739414 695.46127649 -453.06172204 698.84380072 -449.43359375 703.078125 C-447.81937787 705.34078658 -447.25002782 707.31498012 -446.5625 710 C-445.6242935 713.65289868 -444.53618879 715.9767631 -442.125 718.875 C-438.74613922 722.96958006 -437.57336884 727.22170096 -436.05859375 732.25 C-435.13812882 734.79120514 -434.37613024 736.18458102 -432.5625 738.125 C-429.64900442 741.47551991 -428.58691297 744.54618826 -427.25 748.73046875 C-425.72084131 751.6529727 -423.86108875 752.32595833 -421.0625 754 C-419.40234375 756.5234375 -419.40234375 756.5234375 -418 759.375 C-416.42996159 762.44663926 -415.05837844 765.00506364 -412.875 767.6875 C-411.11948744 769.92729189 -410.57774617 771.28472312 -409.75 773.9375 C-408.09203075 778.75738874 -404.99105066 780.96667217 -401.0625 784 C-392.1663063 792.47256542 -392.1663063 792.47256542 -389.87695312 797.71459961 C-387.45302873 802.10355959 -384.23705013 805.15989617 -380.65625 808.62890625 C-379.93514038 809.34102768 -379.21403076 810.05314911 -378.47106934 810.78684998 C-376.17528088 813.05271915 -373.8698287 815.30838771 -371.5625 817.5625 C-369.25606294 819.82103673 -366.95197858 822.08178825 -364.65393066 824.34886169 C-363.22665991 825.75644877 -361.79448217 827.15908229 -360.35681152 828.55604553 C-354.0326818 834.78460867 -354.0326818 834.78460867 -352.0625 839 C-352.0625 839.99 -352.0625 840.98 -352.0625 842 C-351.33546875 842.0825 -350.6084375 842.165 -349.859375 842.25 C-346.43172894 843.16914531 -344.88768781 844.57629382 -342.3125 847 C-341.44367188 847.80953125 -340.57484375 848.6190625 -339.6796875 849.453125 C-337.22100639 851.84575199 -334.82573855 854.28738724 -332.4375 856.75 C-329.1262694 860.12569703 -325.85799054 862.54424604 -321.76953125 864.8828125 C-319.32880692 866.48017442 -317.85785092 868.72588883 -316.0625 871 C-315.0725 871.495 -314.0825 871.99 -313.0625 872.5 C-310.0625 874 -310.0625 874 -308.3125 876.375 C-305.46042544 879.70242032 -302.43901669 880.91449511 -298.515625 882.75 C-296.35827373 883.84928727 -294.74271047 884.91300178 -292.9375 886.5 C-290.09137699 888.97488958 -287.23988089 890.80670065 -283.9921875 892.69140625 C-282.0625 894 -282.0625 894 -280.16015625 896.0625 C-277.65754934 898.37403264 -275.93527418 898.77177218 -272.625 899.4375 C-267.77456356 900.61453924 -265.24115031 902.00105284 -262.0625 906 C-259.85610635 908.20639365 -258.62723413 908.57315957 -255.6875 909.4375 C-252.33258578 910.5071828 -249.60645656 911.45604344 -247.0625 914 C-247.0625 914.66 -247.0625 915.32 -247.0625 916 C-245.45181641 916.32871094 -245.45181641 916.32871094 -243.80859375 916.6640625 C-235.73424186 918.42458562 -229.87611672 919.77112494 -224.0625 926 C-221.48619433 927.28815284 -219.17450247 927.35644748 -216.3125 927.6875 C-209.73222896 928.71299679 -209.73222896 928.71299679 -207.25 931.9375 C-203.98516519 935.96250531 -199.49451274 936.16322415 -194.6706543 936.95678711 C-189.46280735 937.83280734 -185.58243943 939.39194299 -181.0625 942 C-174.66902734 945.05540694 -169.18403476 946.04424135 -162.125 946.3125 C-156.55563913 946.67798931 -153.43991806 947.369946 -149.0625 951 C-143.00358288 954.22659464 -137.34827747 954.64979266 -130.5625 955.0625 C-124.08603485 955.48127271 -118.30011487 956.09320437 -112.0625 958 C-110.06653761 958.17821093 -108.06520579 958.30575751 -106.0625 958.375 C-102.26881273 958.62948337 -99.58036304 958.92286498 -96.375 961 C-89.91105189 964.90276113 -81.8303919 964.14923102 -74.44702148 964.14526367 C-73.53196838 964.14862228 -72.61691528 964.1519809 -71.6741333 964.15544128 C-68.67727264 964.16486868 -65.68046828 964.16688987 -62.68359375 964.16796875 C-60.58569822 964.17118576 -58.48780291 964.17455016 -56.38990784 964.17805481 C-52.00480631 964.1840246 -47.61972444 964.1858968 -43.23461914 964.18530273 C-37.62723648 964.18520094 -32.01997996 964.19888059 -26.41262722 964.21607494 C-22.08453292 964.22721111 -17.75646905 964.22922148 -13.42836189 964.22869301 C-11.36119208 964.22986962 -9.29402139 964.23427344 -7.22686577 964.24202538 C-4.33401574 964.25186305 -1.44143875 964.24893288 1.45141602 964.24291992 C2.71954384 964.25134918 2.71954384 964.25134918 4.01329041 964.25994873 C9.32109073 964.23202635 13.82487783 963.42733791 18.9375 962 C21.64223028 961.74552269 24.31700429 961.62899233 27.03125 961.5390625 C30.14464558 961.13015345 30.14464558 961.13015345 33.27734375 959.05859375 C39.59179403 955.72468329 47.00572782 955.90063955 54 955.4375 C56.15756602 955.28966184 58.3142149 955.13660868 60.47032166 954.96876526 C62.42335969 954.81726593 64.37781064 954.68431262 66.33227539 954.55249023 C70.39527329 953.92984757 73.24007243 952.75918221 76.9375 951 C83.65819249 947.9983114 90.0723758 946.21786786 97.34765625 945.00390625 C100.49650514 944.123325 102.44989519 943.20638768 105.203125 941.5625 C110.15357504 938.67696599 115.04439877 937.54561938 120.625 936.4375 C127.06162939 935.148352 131.48163908 933.7957096 136.9375 930 C139.41348572 929.28577335 141.91731196 928.66284501 144.4375 928.125 C149.72271189 926.89146646 152.95424818 925.692685 156.34375 921.390625 C159.94759056 918.24609746 165.36980975 917.91617452 169.9375 917 C170.9275 916.67 171.9175 916.34 172.9375 916 C173.164375 915.38125 173.39125 914.7625 173.625 914.125 C175.74054164 910.69983735 179.23626808 910.21143395 182.9375 909 C188.05274284 907.26994965 188.05274284 907.26994965 191.625 903.5 C194.92589613 899.93146364 198.46923193 899.75733555 203.16015625 898.96875 C206.73608597 897.72144962 207.09159092 896.20859589 208.9375 893 C211.64453125 891.375 211.64453125 891.375 214.75 890 C219.8138198 887.63801109 219.8138198 887.63801109 224.25 884.3125 C226.9375 882 226.9375 882 230.625 880.5 C234.47616123 878.75607794 234.87135409 877.52966594 236.9375 874 C239.65915752 872.01479099 242.48198563 870 245.9375 870 C246.14375 869.2575 246.35 868.515 246.5625 867.75 C248.34935945 864.17628111 250.49789993 862.93477504 253.9375 861 C254.5975 861 255.2575 861 255.9375 861 C256.17082031 860.41992188 256.40414062 859.83984375 256.64453125 859.2421875 C258.2448869 856.4669484 260.08177165 855.0645524 262.625 853.125 C266.32015674 850.26698555 269.8945682 847.35017484 273.3671875 844.2265625 C274.9375 843 274.9375 843 276.984375 842.01953125 C279.53606581 840.68754865 280.8337516 838.67571169 282.578125 836.44140625 C283.9375 835 283.9375 835 287.0625 833.5 C290.72701541 831.58807892 291.21317633 829.67355912 292.9375 826 C293.741875 825.360625 294.54625 824.72125 295.375 824.0625 C298.01130458 821.94059632 299.08791413 820.01519609 300.640625 817.0625 C302.8919519 813.48207649 305.84198412 810.51334408 308.71875 807.4296875 C310.90786841 805.03244868 312.91600682 802.53861935 314.9375 800 C315.9584375 799.01 315.9584375 799.01 317 798 C319.05784829 796.04103442 319.05784829 796.04103442 320.4375 793.375 C321.9375 791 321.9375 791 323.9140625 790.09375 C326.41426797 788.74228758 326.78165621 787.72665338 327.8125 785.125 C329.29067489 781.87185132 329.79384083 781.09277988 332.9375 779.0625 C336.64759571 776.5118092 337.33728154 774.31066977 338.94140625 770.23046875 C340.37600132 767.01810096 342.66750981 764.66723847 344.9375 762 C345.63672953 760.64126989 346.30266426 759.2649831 346.9375 757.875 C348.26033263 755.04264465 348.88545709 754.04033326 351.4375 752.0625 C354.5957371 749.45695439 355.5073458 746.85878466 357.03125 743.12890625 C358.03827816 740.76325819 359.1554853 738.86301537 360.9375 737 C361.5975 737 362.2575 737 362.9375 737 C363.07285156 736.24976563 363.20820312 735.49953125 363.34765625 734.7265625 C364.81281052 727.76049971 366.92115015 723.18949037 371.23828125 717.578125 C373.6933528 713.85318885 374.71833781 709.9119151 375.9765625 705.6640625 C377.03095984 702.74089589 378.5591796 701.0193384 380.72265625 698.81640625 C382.54071571 696.09808584 383.07504245 693.21917897 383.875 690.0625 C385.00437236 685.6283249 385.78158369 682.60578498 389.125 679.4375 C393.01134424 675.61899718 392.50437946 671.36631261 392.671875 666.16796875 C393.09071384 661.1726996 394.84327258 657.03171317 398.5078125 653.4765625 C402.02844208 649.84050244 401.60036037 643.71575766 402.09960938 638.89257812 C402.5273206 635.14054226 403.20580106 632.3220347 404.9375 629 C405.12600958 627.193001 405.2470267 625.3781251 405.3125 623.5625 C405.65479 618.80213346 406.48333282 616.45416718 409.9375 613 C410.92463222 610.03860335 411.08130914 607.55012504 411.17700195 604.45385742 C411.50173667 594.64990992 412.76336077 584.88671007 416.91645813 575.87602234 C421.55126844 564.79149184 420.4749059 552.82810709 420.3984375 541.0390625 C420.39604876 538.60110573 420.39514866 536.16314709 420.3956604 533.72518921 C420.39254308 528.62982559 420.37606233 523.53474544 420.34912109 518.43945312 C420.3151798 511.94152507 420.30749235 505.4439082 420.30901146 498.94590187 C420.30846482 493.9149789 420.29745012 488.88412255 420.28300858 483.85322189 C420.2766897 481.45888141 420.27271332 479.06453345 420.27122116 476.67018509 C420.72967227 454.78788094 420.72967227 454.78788094 414.9375 434 C414.22727523 431.31708128 413.75791758 428.61293403 413.3125 425.875 C413.18552734 425.13507813 413.05855469 424.39515625 412.92773438 423.6328125 C412.17978913 419.09031779 411.70807208 414.59972536 411.4375 410 C411.05398426 403.96150709 409.94338169 398.62302661 406.99267578 393.29345703 C403.73695309 387.3079934 402.92382823 381.76735901 402.16015625 375.06640625 C401.40821661 369.33866848 399.78230662 365.00904071 396.9375 360 C394.45853929 355.47851532 393.36574575 351.65841624 392.5625 346.5625 C391.66283113 341.40990748 390.57767991 337.77849834 387.12890625 333.8046875 C384.95705692 330.51486982 384.52078314 326.59680017 383.6796875 322.79296875 C382.74627678 319.28039685 381.10780097 316.89373463 378.9375 314 C376.72973096 310.06585517 374.92100826 306.07056965 373.4375 301.8125 C372.50370796 299.2029298 371.79553802 297.82598209 370 295.625 C367.98012484 293.05424979 367.16429177 291.16064206 366.0625 288.125 C364.7529843 284.61570495 363.46677457 282.2005651 360.875 279.5 C358.24376394 276.73753022 357.34984115 274.5104508 356.4375 270.8125 C355.46193019 266.71498596 355.46193019 266.71498596 352.125 264.125 C347.76914813 261.22109875 346.53182078 257.66979586 344.4296875 252.97265625 C342.90411356 249.93348931 341.08241912 247.62396544 338.9375 245 C337.84765625 242.90234375 337.84765625 242.90234375 337 240.9375 C335.24753886 237.25319194 333.22990784 235.4482007 329.9375 233 C326.9375 228.65517241 326.9375 228.65517241 326.9375 226 C326.16388123 225.75807922 325.39026245 225.51615845 324.59320068 225.26690674 C321.45002017 223.76744688 320.94308333 222.80560616 319.44628906 219.72949219 C315.16014918 212.13125785 308.93948282 206.42534342 302.796875 200.328125 C301.50602906 199.03457819 300.21577685 197.74043864 298.92608643 196.44573975 C296.2327219 193.74650823 293.53233499 191.05456577 290.82666016 188.36767578 C287.37918189 184.94298471 283.94997886 181.50064356 280.52587509 178.05260086 C277.86837191 175.38056393 275.20131633 172.71822478 272.5313797 170.05861664 C271.26393267 168.79381598 269.99938909 167.52609818 268.73796844 166.25528717 C259.6671331 157.12427339 259.6671331 157.12427339 248.83966064 150.2411499 C246.57058069 148.76058706 246.00846398 147.44353502 244.9375 145 C243.14082922 143.63856198 243.14082922 143.63856198 241.0625 142.5625 C238.31921449 140.96265908 236.9521877 140.01942566 235 137.4375 C232.3892531 134.35207184 229.78266412 133.45806174 226.09375 131.9609375 C223.32391029 130.72655241 221.29560963 128.89799068 218.9375 127 C216.39611343 125.7518877 213.83739385 124.57335796 211.2421875 123.44140625 C208.9375 122 208.9375 122 207.50390625 119.46484375 C205.41834821 116.18308035 203.70724828 115.95316149 200 115 C195.04308495 113.53437367 192.83633065 112.40622258 189.9375 108 C187.56409955 106.71158261 185.41114726 106.08318536 182.7578125 105.6171875 C181.97148438 105.47539062 181.18515625 105.33359375 180.375 105.1875 C179.63121094 105.07792969 178.88742187 104.96835938 178.12109375 104.85546875 C175.9375 104 175.9375 104 174.05859375 101.58203125 C171.45632178 98.41425635 169.42614172 97.7608621 165.5625 96.5 C161.61678319 95.10765081 159.20819108 94.24126814 156.0625 91.4375 C151.67101742 88.01214358 146.9474198 87.31917004 141.59375 86.1875 C137.9375 85 137.9375 85 134.94921875 82.46484375 C131.44323037 79.59548101 128.59652757 79.06820177 124.25 78.5625 C119.02332715 77.78659137 115.00432191 76.8204803 110.4375 74 C105.42301204 70.91880861 100.5803785 70.04933318 94.8684082 69.18798828 C89.21353984 68.25375874 84.91962024 66.2876146 80.07421875 63.3046875 C76.36001566 61.03678287 73.13665102 60.80220799 68.87109375 60.5703125 C67.66259766 60.49683594 66.45410156 60.42335937 65.20898438 60.34765625 C62.6806912 60.2008272 60.15203744 60.06006394 57.62304688 59.92578125 C49.50275135 59.41853145 41.41802265 58.86255614 34.40625 54.3828125 C30.60242719 52.25219023 26.73335606 52.20050342 22.4375 51.875 C21.06754883 51.75499634 21.06754883 51.75499634 19.66992188 51.63256836 C14.80315054 51.22714269 9.94277426 50.94032504 5.0625 50.76171875 C4.11955078 50.72643066 3.17660156 50.69114258 2.20507812 50.65478516 C0.39690703 50.59449152 -1.41179099 50.54799154 -3.22070312 50.51708984 C-10.6999257 50.29049104 -14.30797753 47.63168881 -20.0625 43 C-21.0525 42.38125 -22.0425 41.7625 -23.0625 41.125 C-27.72918847 37.819429 -31.73118095 33.72467192 -33.0625 28 C-33.15316115 21.90303736 -32.01111062 17.66653982 -28.0625 13 C-27.4025 13 -26.7425 13 -26.0625 13 C-25.815 12.278125 -25.5675 11.55625 -25.3125 10.8125 C-23.22673429 6.11952714 -21.35513176 3.62772221 -16.66796875 1.3515625 C-11.15697475 -0.59811691 -5.76913541 -0.28989535 0 0 Z "
        fill="currentColor"
        transform="translate(690.0625,100)"/>
  <path d="M0 0 C0.66 0.66 1.32 1.32 2 2 C4.93168477 2.44676073 7.80174445 2.79426472 10.75 3.0625 C12.34910642 3.21854184 13.94806912 3.37606455 15.546875 3.53515625 C16.31692871 3.61056641 17.08698242 3.68597656 17.88037109 3.76367188 C19.62371015 3.95804555 21.35759242 4.23543058 23.0859375 4.53515625 C25.98413418 4.99746912 28.8304548 5.17499303 31.76098633 5.29052734 C55.46941462 6.23787879 55.46941462 6.23787879 60.90234375 10.48828125 C64.17231347 12.84485161 67.83609918 13.1103516 71.75 13.8125 C78.03706012 15.05517478 82.61270871 16.3316176 87.49609375 20.6796875 C90.42067517 23.2472421 93.76717402 23.83283716 97.53515625 24.34375 C102.46442274 25.04889954 105.92115264 25.55530337 109.6875 28.9375 C113.96219491 32.60787213 118.77284732 33.20058157 124.19018555 33.88647461 C129.08218078 34.56371783 132.06204394 36.0745014 136 39 C139.92642732 41.21701315 143.93116811 43.01709717 148.1875 44.5 C151.73733433 45.77959145 154.08179811 47.5800277 157 50 C158.51223034 50.80797867 160.03397412 51.59828978 161.5625 52.375 C164.86101924 54.12987723 165.91779146 54.87154916 168 58.125 C170.5615392 61.8072126 172.60199888 62.07399078 176.78515625 63.2265625 C179.49373892 64.17241676 181.14607738 65.81191665 183.21484375 67.75390625 C185.62560736 69.4366931 188.05830393 70.05361053 190.875 70.875 C196.98205466 72.75989342 200.60694017 75.45004517 205 80 C206.3319399 81.35553726 207.66529337 82.70968688 209 84.0625 C209.65613281 84.73023438 210.31226563 85.39796875 210.98828125 86.0859375 C213.55312936 88.52627842 216.31960161 90.56200292 219.1875 92.62890625 C221.6949922 94.52573764 223.80972977 96.75053328 226 99 C226.825 99.66 227.65 100.32 228.5 101 C231.20440014 103.16352011 233.55236071 105.55236071 236 108 C236.886875 108.66 237.77375 109.32 238.6875 110 C241 112 241 112 242 114.625 C242.77083333 117.22916667 242.77083333 117.22916667 245.375 118 C246.24125 118.33 247.1075 118.66 248 119 C252 123.32432432 252 123.32432432 252 126 C252.7425 126.226875 253.485 126.45375 254.25 126.6875 C257.5425747 128.2589561 258.97497109 129.99995716 261 133 C261 133.66 261 134.32 261 135 C261.7425 135.226875 262.485 135.45375 263.25 135.6875 C267.1163224 137.53279024 269.17365149 140.18203327 270.9375 144.0625 C271.93772423 146.190445 271.93772423 146.190445 274.25 147.75 C277.29392951 150.24048778 279.30478128 152.88252239 281.5859375 156.05859375 C283.06236532 158.14626963 283.06236532 158.14626963 285.1875 160.5 C286.87591278 162.82884521 287.52023335 164.37961971 288.375 167.0625 C289.84937758 171.38895225 292.19162535 172.51289819 296 175 C297.17708343 176.96597978 298.08050628 178.97755478 299.01953125 181.06640625 C300.47676466 183.9402331 302.67734044 185.78291588 305 188 C310.29028492 194.05789488 314.13438801 199.35900752 316.66015625 206.99609375 C317.90303886 210.5889074 318.76103178 212.748777 321.4375 215.5625 C324.35124496 218.70171332 325.00185454 222.37944396 325.9375 226.4375 C327.19269612 231.85713184 328.59530534 235.40776597 332.60546875 239.31640625 C335.86991652 243.25751826 337 248.97928234 337 254 C337.8971875 254.309375 337.8971875 254.309375 338.8125 254.625 C343.23062776 257.40210888 344.1262918 262.34543463 345.4375 267.125 C346.6012531 271.24101097 347.92509006 273.02428071 351 276 C352.85162199 282.23560935 353.57703003 288.36007111 354.12304688 294.8203125 C354.70338489 300.59232304 356.57519897 304.64977673 359.59375 309.62890625 C361.66661962 314.59803537 361.97654392 319.60923412 362.5 324.9375 C363.18113951 331.84560013 363.81534319 337.7791937 367 344 C370.25864011 350.3919479 371.19782472 355.29188723 371.5234375 362.4453125 C371.56455658 363.31407013 371.60567566 364.18282776 371.64804077 365.07791138 C372.20563812 377.67014714 372.41588704 390.27305613 372.625 402.875 C372.64679321 404.18059875 372.66858643 405.48619751 372.69104004 406.83135986 C373.7187525 470.8943956 373.7187525 470.8943956 366.68212891 491.02368164 C364.09856035 498.50900285 363.85451647 506.22696456 363.5625 514.0625 C362.89076956 530.69626336 362.89076956 530.69626336 357.375 537 C356.59125 537.66 355.8075 538.32 355 539 C353.03738813 542.92522375 353.63905951 547.87557307 353.4765625 552.203125 C352.81787367 557.45103931 351.2782736 560.75368324 347.5 564.4375 C343.81240083 568.543394 343.63173689 574.28275614 342.87109375 579.5390625 C341.89421161 583.42030725 340.76944712 584.27839362 338 587 C337.1885331 589.49638776 336.54213785 591.82494417 336 594.375 C334.78592182 599.7841519 333.29440857 603.52901695 330 608 C328.55871617 610.28203273 327.21538384 612.52428265 326.1015625 614.984375 C325.61816406 616.04398438 325.61816406 616.04398438 325.125 617.125 C324.83882812 617.78757812 324.55265625 618.45015625 324.2578125 619.1328125 C323 621 323 621 320.4609375 622.375 C317.75923474 623.80365233 317.75923474 623.80365233 317.03125 626.7421875 C316.76828125 628.29292969 316.76828125 628.29292969 316.5 629.875 C315.35706049 635.25580511 313.99618122 637.19411312 310 641 C309.12832613 642.93272097 308.3224592 644.89568504 307.5625 646.875 C305.74495155 651.55032903 303.85727692 654.75186484 300.40625 658.34375 C298.82414179 660.20712189 297.93714667 662.02497999 296.9375 664.25 C295.25039056 667.91946304 293.53154484 669.0078465 290 671 C288.98308736 672.99145391 287.98357352 674.99187074 287 677 C286.236875 677.598125 285.47375 678.19625 284.6875 678.8125 C281.47312768 681.42884957 279.69048159 684.29324551 277.4765625 687.76171875 C276.20086228 689.69551829 274.8829573 691.434384 273.375 693.1875 C270.94475261 695.93022369 270.94475261 695.93022369 269.125 699 C266.9119392 702.12432113 264.60970892 704.15864327 261.66796875 706.5546875 C259.46307525 708.46525096 257.79552046 710.70916356 256 713 C255.319375 713.474375 254.63875 713.94875 253.9375 714.4375 C251.76553246 715.95918824 251.76553246 715.95918824 250.625 718.875 C248.67152641 722.63167998 246.29185896 724.37994899 243 727 C242.34 727.86625 241.68 728.7325 241 729.625 C239 732 239 732 236.0625 733.4375 C232.9271295 735.03717883 231.58462892 736.6470978 229.47265625 739.390625 C227.10391458 741.97927638 224.22293364 743.68407356 221.2734375 745.55078125 C219.19522507 746.87555241 217.22583888 748.27890599 215.25 749.75 C212 752 212 752 209.3125 752.9375 C206.00888736 754.45537608 204.96029907 756.99829205 203 760 C198.8 763 198.8 763 196 763 C195.835 763.721875 195.67 764.44375 195.5 765.1875 C193.6169252 768.71826525 191.53290293 769.75054597 188.0703125 771.59375 C185.80777364 772.95853873 185.80777364 772.95853873 184.14453125 775.56640625 C181.39963824 778.68128484 179.61341967 778.83337441 175.5625 779.4375 C169.44310509 780.63020598 167.93405752 782.18077954 164 787 C160.70554995 788.17107404 157.37740776 789.03270039 154 789.93359375 C150.71473761 790.80961271 150.71473761 790.80961271 148.5 794.0625 C145.46293672 797.63104935 144.00691283 797.64992381 139.5 798.5 C133.42332192 799.64743977 131.85713819 801.15385202 128 806 C123.67336777 807.91708501 118.79102681 810 114 810 C113.62875 810.928125 113.62875 810.928125 113.25 811.875 C111.70830287 814.49588512 110.81533588 814.89631351 108 816 C105.7160151 816.34672542 103.42243238 816.63290497 101.125 816.875 C95.56504257 817.59148936 92.58725128 818.76807296 88 822 C85.51564545 822.41334148 83.06739436 822.57016253 80.5546875 822.73046875 C77.33920379 823.06971703 74.64528951 824.06661462 71.62890625 825.18359375 C67.01586786 826.61617179 62.21354179 827.2798836 57.453125 828.05859375 C53.68766323 829.08515064 51.95440531 830.52687685 49 833 C44.4315406 834.85437787 40.02828468 835.42510748 35.15234375 835.74609375 C33.64516093 835.86235366 32.13800009 835.97889869 30.63085938 836.09570312 C28.27885966 836.26906013 25.92667684 836.4382524 23.57397461 836.60180664 C21.2866086 836.76374195 19.00088476 836.9415425 16.71484375 837.12109375 C16.01576401 837.16495712 15.31668427 837.2088205 14.59642029 837.25401306 C10.25964952 837.60425728 7.61150707 838.65076725 4 841 C1.83105469 841.50830078 1.83105469 841.50830078 -0.328125 841.6953125 C-1.12863281 841.77136719 -1.92914062 841.84742188 -2.75390625 841.92578125 C-3.57761719 841.99152344 -4.40132812 842.05726563 -5.25 842.125 C-6.8802297 842.2732027 -8.51043813 842.42163946 -10.140625 842.5703125 C-10.95587646 842.63984131 -11.77112793 842.70937012 -12.61108398 842.78100586 C-14.82722598 842.98416165 -17.0296293 843.24045393 -19.23828125 843.51171875 C-37.19932383 845.53042883 -55.48358699 845.25084378 -73.5 844.25 C-74.22919647 844.21329193 -74.95839294 844.17658386 -75.70968628 844.13876343 C-77.79729783 844.02975956 -79.8827229 843.90135491 -81.96875 843.765625 C-83.15919922 843.69118164 -84.34964844 843.61673828 -85.57617188 843.54003906 C-89.47361051 842.9252976 -94.10789247 841.89210753 -97 839 C-99.4402574 838.62818101 -101.85951758 838.3251862 -104.3125 838.0625 C-105.08706543 837.97605225 -105.86163086 837.88960449 -106.65966797 837.80053711 C-111.81562984 837.25381283 -116.96984426 836.85556978 -122.14453125 836.53125 C-123.37969482 836.45253662 -124.6148584 836.37382324 -125.88745117 836.29272461 C-128.34136853 836.14156881 -130.79599229 836.00139995 -133.2512207 835.87329102 C-148.07048312 834.96445954 -148.07048312 834.96445954 -152.51464844 830.46728516 C-157.01500315 826.02166848 -166.41085429 826.07784534 -172.50390625 825.23242188 C-177.01050059 824.54465326 -180.20323162 823.67350299 -184 821 C-188.059749 818.18736344 -190.81923377 817.6314871 -195.75 817.5 C-209.30910998 816.76170291 -209.30910998 816.76170291 -214.375 811.5625 C-217.72600652 808.29127935 -220.98852726 807.47785271 -225.375 806.03125 C-228 805 -228 805 -230.9375 802.5 C-234.77666144 799.36599066 -238.49540685 798.45727831 -243.1875 797.03125 C-246.79267192 795.70935363 -249.06369281 793.44692266 -252 791 C-254.97106967 789.91060779 -257.94594917 789.01463877 -261 788.1875 C-264 787 -264 787 -266.93359375 784.53125 C-270.28352156 781.76595927 -272.94734401 780.80276596 -277.0625 779.5 C-284.09879468 777.02399203 -288.54517419 773.23551874 -293.43579102 767.66992188 C-296.71602131 763.98723949 -299.69159327 761.86349825 -304.25561523 759.94384766 C-307.10651518 758.40128933 -308.31560912 755.6950254 -310 753 C-311.98075027 751.63823419 -313.98079663 750.30406884 -316 749 C-316.5775 748.175 -317.155 747.35 -317.75 746.5 C-320.18609287 743.79323014 -321.04834424 743.56101505 -324.39453125 742.546875 C-331.05248998 739.98307478 -335.54526838 735.32475755 -340.41625977 730.31103516 C-341.94035873 728.74706648 -343.49190168 727.21481218 -345.04882812 725.68359375 C-351.39508469 719.33656916 -355.42427412 714.46375153 -356.3984375 705.21875 C-356.31232877 691.55616438 -356.31232877 691.55616438 -353 686 C-348.02247985 682.82285948 -342.55625316 682.27652485 -336.76953125 681.4296875 C-334.09905014 681.08993361 -334.09905014 681.08993361 -332.00390625 680.35546875 C-327.22516594 679.50777797 -322.20620964 681.89973338 -318 684 C-316.1914172 685.9537402 -314.89134504 687.93671788 -313.48046875 690.1875 C-311.2244403 692.94949789 -308.64979799 693.29209112 -305.30078125 694.17578125 C-299.02583142 696.42368348 -294.50766592 702.3689482 -290.3671875 707.37109375 C-285.97870219 712.59966053 -281.25901888 717.04115205 -275 719.8125 C-271.85662082 721.2879637 -270.43812494 722.51438873 -268.6875 725.5 C-266.01185966 729.78285093 -262.41944955 730.64024121 -257.71875 731.98046875 C-255 733 -255 733 -252.55078125 734.96875 C-249.67419554 737.25944612 -247.16780535 738.16629165 -243.6875 739.3125 C-237.51971776 741.57053553 -233.61015742 744.43333463 -229 749 C-228.01 749.763125 -227.02 750.52625 -226 751.3125 C-225.34 751.869375 -224.68 752.42625 -224 753 C-224 753.66 -224 754.32 -224 755 C-220.40046282 756.62727721 -217.49667944 757.22990969 -213.5625 757.375 C-208.61541264 757.74636313 -205.94779118 758.87849069 -202 762 C-196.93210078 764.7773233 -191.87222996 766.25796023 -186.31640625 767.7421875 C-183.44232761 768.83223853 -182.02188849 769.66254925 -179.703125 771.5078125 C-175.52369633 774.65670504 -171.2748389 775.24403455 -166.1875 776 C-160.6749819 776.83047928 -156.10688944 777.78666916 -151.20703125 780.52734375 C-145.18635322 783.74065014 -139.21960957 784.08039231 -132.5 784.5625 C-112.97121167 786.02878833 -112.97121167 786.02878833 -108 791 C-83.05174662 794.67900511 -57.09441611 794.39419976 -31.9375 793.6875 C-31.2631189 793.6705307 -30.58873779 793.6535614 -29.8939209 793.63607788 C-19.63893846 793.36060807 -9.58070402 792.88692592 0 789 C2.01479249 788.78635086 4.03810333 788.64528202 6.0625 788.5625 C11.54702165 788.21856583 16.4086629 787.21010388 21.6875 785.75 C25.69623916 784.84236094 29.66452815 784.4547053 33.75 784.0625 C40.03132051 783.43010616 44.59419134 782.30354974 50 779 C54.48356534 776.67199492 58.07886732 775.81339737 63.0625 775.5 C68.88032735 775.13003841 72.73605959 774.06418096 77.125 770.0625 C80.11260697 767.91921674 82.44419504 767.13073629 85.9375 766.0625 C89.61080008 764.92776872 92.43372203 764.02059446 95.25 761.375 C100.4588631 756.87643642 107.08092868 756.76279378 113.703125 756.24609375 C115.90865149 756.00978734 117.89583784 755.70449775 120 755 C120.309375 754.38125 120.61875 753.7625 120.9375 753.125 C122.97336505 749.0532699 126.9711558 747.9887814 131.0625 746.625 C134.01214818 745.57429044 134.8669092 745.16858168 136.875 742.625 C139.60325829 739.25479858 142.52123109 738.13435711 146.40234375 736.328125 C149.67180536 734.65652057 152.38603886 732.54695812 155.25390625 730.2734375 C157 729 157 729 159.75 727.9375 C162.20100941 727.13804718 162.20100941 727.13804718 163.75 724.6875 C166.44052592 721.47381626 169.16751991 720.16080265 172.83984375 718.25 C175.21589334 716.99899774 175.21589334 716.99899774 177.5 714.5 C179.84384086 712.15615914 181.53764845 711.10146352 184.4375 709.625 C188.50436368 707.50374552 190.93680249 705.15036292 193.61328125 701.453125 C195.31695143 699.66787061 196.64438338 699.54850117 199 699 C199.2475 698.2575 199.495 697.515 199.75 696.75 C201.17281087 693.61981609 201.97824348 693.21397189 204.875 691.5625 C208.82818868 689.30455259 210.56127022 686.86832999 213 683 C214.66666667 682 216.33333333 681 218 680 C218.66 679.01 219.32 678.02 220 677 C222 674 222 674 224.5 672.625 C227.707248 670.5402888 228.53619801 668.35169145 230.09375 664.94140625 C231.14188959 662.69603826 232.32375917 660.82862636 234 659 C234.66 659 235.32 659 236 659 C236.2475 658.29875 236.495 657.5975 236.75 656.875 C239.40045597 650.77895127 242.89012093 647.15177675 248 643 C249.36244796 641.35704805 250.69864875 639.69175663 252 638 C252.66 637.401875 253.32 636.80375 254 636.1875 C256.31729784 633.65295548 257.50742517 631.12588533 258.875 628 C260 626 260 626 262.00390625 624.1171875 C264.42056216 621.55392428 265.00528648 619.50158907 265.9375 616.125 C267.95070214 609.58801424 267.95070214 609.58801424 270.5 606.875 C272.92039174 604.0915495 273.72473486 602.3917166 274.9375 599 C276.19777947 595.54191608 277.2118318 593.51156693 280.0625 591.1875 C284.00457001 587.73818874 284.29261812 583.30104139 285.06640625 578.31640625 C285.93040674 575.24721623 286.54955905 574.08519741 288.43359375 571.68359375 C291.54633996 567.61316625 292.44529791 563.44538092 293.5 558.5 C294.75499046 552.61548916 296.11727083 548.4897821 299.84082031 543.7421875 C301.87291605 540.68805203 302.42847858 537.30557599 303.125 533.75 C304.87627554 525.10406311 304.87627554 525.10406311 308 523 C308.66 523 309.32 523 310 523 C310.56750387 517.72490946 311.05442299 512.45512328 311.39453125 507.16015625 C311.49797852 505.6587207 311.49797852 505.6587207 311.60351562 504.12695312 C311.74252131 502.08863614 311.87018129 500.04951282 311.98632812 498.00976562 C313.16147278 481.83852722 313.16147278 481.83852722 318 477 C318.37649418 474.56161194 318.70681545 472.13604907 319 469.6875 C319.88796846 462.39644651 319.88796846 462.39644651 320.52217102 460.15219116 C321.1387297 457.3751471 321.13521692 454.77340527 321.14526367 451.92822266 C321.15164352 450.69818512 321.15802338 449.46814758 321.16459656 448.20083618 C321.16612816 446.85524536 321.16724055 445.509654 321.16796875 444.1640625 C321.17118917 442.7651669 321.17455381 441.36627163 321.17805481 439.96737671 C321.18404776 437.02349065 321.18589523 434.07963391 321.18530273 431.13574219 C321.18522237 428.16074422 321.19201499 425.18590317 321.20581055 422.2109375 C321.3148184 401.28734174 321.3148184 401.28734174 320.23828125 380.3984375 C320.14682076 379.11895737 320.14682076 379.11895737 320.05351257 377.81362915 C319.571662 372.82435381 318.31269452 369.17493852 315.91163635 364.78591919 C314.70564058 362.42334229 314.29370635 360.23387963 313.98828125 357.609375 C313.81232422 356.18238281 313.81232422 356.18238281 313.6328125 354.7265625 C313.52710938 353.74429687 313.42140625 352.76203125 313.3125 351.75 C313.19003906 350.73164062 313.06757812 349.71328125 312.94140625 348.6640625 C312.32776939 343.44814915 311.83924183 338.24161881 311.5 333 C311.0859443 327.28603141 309.35840159 323.38347509 306.51953125 318.40234375 C304.28947782 313.40908787 303.54805543 308.26591481 302.62695312 302.90039062 C301.64424307 297.70724084 300.32874197 295.15776326 297 291 C295.45593463 286.65195319 294.45872136 282.14132724 293.37695312 277.66015625 C291.8880434 271.93982188 290.43252004 269.08543853 286 265 C285.1015625 262.16796875 285.1015625 262.16796875 284.625 259.1875 C283.68160294 254.73076216 282.75130687 252.25939169 279.5 249.0625 C275.28253027 244.88039689 274.67350043 240.50043797 273.80078125 234.7578125 C273.30728068 231.87995221 273.30728068 231.87995221 271.046875 230.8515625 C270.37140625 230.57054687 269.6959375 230.28953125 269 230 C267.83984375 228.265625 267.83984375 228.265625 266.9375 226.25 C266.60492187 225.53714844 266.27234375 224.82429687 265.9296875 224.08984375 C265.62289062 223.40019531 265.31609375 222.71054687 265 222 C263.42701226 218.51207066 262.25106976 216.24479301 259.5 213.5625 C257 211 257 211 255.5 207.4375 C253.82138241 203.59066802 252.24403744 202.53193166 249 200 C245 194.29677419 245 194.29677419 245 191 C244.01 190.67 243.02 190.34 242 190 C239.91754569 187.22339425 238.24984149 184.73167865 237.125 181.4375 C235.80017565 178.56704723 233.9863401 177.22362545 231.51171875 175.32421875 C230 174 230 174 227.9375 170.875 C226.22392253 167.89433485 226.22392253 167.89433485 223.5 166.5 C221 165 221 165 219.0625 162.0625 C216.75308473 158.63336823 214.4156007 157.25284301 211 155 C210 153.33333333 209 151.66666667 208 150 C207.030625 149.360625 206.06125 148.72125 205.0625 148.0625 C201.63336823 145.75308473 200.25284301 143.4156007 198 140 C196.35178756 138.96986723 194.68496298 137.96885372 193 137 C192.1028125 135.7934375 192.1028125 135.7934375 191.1875 134.5625 C188.69590207 131.64377099 186.57346576 130.66765349 183.1484375 129.1015625 C180.1058809 127.54156075 177.56096708 125.47580294 174.87890625 123.37109375 C172.87648347 121.81896851 172.87648347 121.81896851 169.8125 120.5 C166.80399132 118.89546204 165.56343694 117.1288324 163.53125 114.46484375 C161.58792936 112.60579977 159.78373382 112.00476869 157.25 111.125 C151.27922483 109.00719897 147.51161546 105.31623054 143 101 C141.989375 100.21625 140.97875 99.4325 139.9375 98.625 C139.298125 98.08875 138.65875 97.5525 138 97 C138 96.34 138 95.68 138 95 C137.16597656 94.86464844 136.33195312 94.72929687 135.47265625 94.58984375 C128.24296492 93.20684438 123.65329397 91.48336635 118.12890625 86.640625 C115.26226348 84.4314691 112.39638895 83.59449108 108.953125 82.61328125 C106.52132457 81.84969592 104.80220158 80.80220158 103 79 C103 78.34 103 77.68 103 77 C101.865625 76.84144531 100.73125 76.68289063 99.5625 76.51953125 C85.42795111 74.38743426 85.42795111 74.38743426 79.73046875 70.19921875 C74.56807981 66.62167156 68.40388316 65.87950087 62.3125 65.125 C55.58069439 64.20347673 55.58069439 64.20347673 52.6875 61.5 C45.94524281 55.22813285 34.41955564 56.35190321 25.73046875 55.87695312 C8.77917381 54.77917381 8.77917381 54.77917381 4 50 C-1.44449382 48.48818956 -7.10798624 47.99441245 -12.73828125 47.79296875 C-13.97880249 47.74765015 -13.97880249 47.74765015 -15.24438477 47.70141602 C-16.87854227 47.65157764 -18.51333163 47.6187056 -20.14819336 47.60522461 C-25.69526664 47.44812806 -30.48001595 46.40231 -35 43 C-35.33 42.01 -35.66 41.02 -36 40 C-37.76591887 38.99083967 -37.76591887 38.99083967 -40 38 C-44.18061078 35.69639814 -46.86302964 33.73246574 -48.53125 29.125 C-50.06727481 22.16168752 -49.76382489 16.13243883 -46 10 C-43.4765625 7.55078125 -43.4765625 7.55078125 -40.625 5.3125 C-39.68914062 4.56613281 -38.75328125 3.81976563 -37.7890625 3.05078125 C-26.87174958 -4.97665472 -12.4960661 -5.21866362 0 0 Z "
        fill="currentColor"
        transform="translate(706,187)"/>
  <path d="M0 0 C0.69480469 0.07476562 1.38960937 0.14953125 2.10546875 0.2265625 C6.68261986 0.79547394 10.03812213 2.00494176 14.125 4.25 C19.99106426 7.23943659 24.69037733 7.66846741 31.125 7.75 C53.72850699 8.45178809 53.72850699 8.45178809 62.12109375 14.21484375 C66.22718258 16.33592278 71.02009357 17.09698154 75.50390625 18.125 C79.31144655 19.30792514 81.89833334 20.9452381 85.125 23.25 C89.7951391 25.26299099 94.22023529 26.49587137 99.1875 27.5625 C104.18662585 28.74354348 106.71314467 30.28046017 110.2890625 33.84765625 C112.63280245 35.63787464 114.69294156 36.05462478 117.5625 36.6875 C122.78700585 37.88106016 125.49671553 39.91405391 129.28125 43.61328125 C131.12168364 45.24705602 132.59483272 46.06311382 134.875 46.9375 C138.125 48.25 138.125 48.25 139.9375 50.1875 C142.32086563 52.43467331 144.00664205 53.03877321 147.0625 54.125 C151.92263478 55.92452512 153.84954412 58.21866969 157.125 62.25 C159.36826943 63.4108816 161.65214996 64.32336893 163.99609375 65.26171875 C167.02868628 66.66950941 168.86424782 68.81534381 171.125 71.25 C172.25451904 72.09023867 173.3993458 72.91005644 174.55371094 73.71582031 C180.43347167 78.0752225 185.52113295 83.27692073 190.703125 88.421875 C191.24242393 88.95551918 191.78172287 89.48916336 192.3373642 90.03897858 C195.18732548 92.85915228 198.03163654 95.68487688 200.87109375 98.515625 C203.78490294 101.41844713 206.71682644 104.30222295 209.65340042 107.18198776 C211.92851116 109.41965983 214.18990919 111.67082312 216.44789886 113.92575836 C217.52250125 114.994356 218.60204615 116.05800952 219.68680573 117.11629486 C225.34312759 122.64422107 230.05199451 127.55430155 232.38774109 135.29808044 C233.48016329 138.19030761 235.43772427 138.92577264 238.125 140.25 C239.71484375 142.66796875 239.71484375 142.66796875 241.0625 145.4375 C243.3231854 149.8595642 245.81596705 153.65103064 248.88671875 157.5390625 C250.125 159.25 250.125 159.25 251.1875 162 C251.97418791 164.46332271 251.97418791 164.46332271 254.5 165.875 C257.94731133 168.99399596 258.75995417 172.1284604 260.1328125 176.49609375 C261.16868961 179.37126448 262.48554077 181.67661997 264.125 184.25 C266.95918145 188.75007437 268.83323538 193.36305788 270.74609375 198.3125 C271.99794245 201.31997539 271.99794245 201.31997539 274.19921875 203.6640625 C277.2910457 207.81576522 277.33707924 212.43105828 278.0234375 217.4609375 C279.10015078 221.16452573 279.55011419 221.91413446 282.09765625 224.45703125 C286.41394947 229.08051542 286.52929443 234.48758634 287.1875 240.5625 C288.0517284 248.20337648 289.28203183 254.07071156 292.97729492 260.83374023 C294.93407613 264.95334535 295.31239619 269.12607046 295.75 273.625 C295.86206787 274.61870605 295.97413574 275.61241211 296.08959961 276.63623047 C296.80823427 283.28397507 297.35970533 289.94545146 297.90234375 296.609375 C297.9681665 297.4151297 298.03398926 298.2208844 298.10180664 299.05105591 C298.42847459 303.07910673 298.74275473 307.1075316 299.03564453 311.13818359 C299.15004609 312.63639468 299.26446586 314.13460438 299.37890625 315.6328125 C299.44754128 316.65335724 299.44754128 316.65335724 299.51756287 317.69451904 C299.84105118 321.82919199 300.72659989 325.35776893 302.125 329.25 C302.72190631 333.90136428 302.90939822 338.5669287 303.125 343.25 C303.19074219 344.26835938 303.25648438 345.28671875 303.32421875 346.3359375 C303.59630361 353.33508604 302.19120888 359.05858804 300.14453125 365.7265625 C296.93576783 376.81585216 296.80179665 388.19739566 296.55395508 399.66113281 C296.02856876 419.52645613 296.02856876 419.52645613 291.625 424.6875 C288.30407479 428.65901583 288.19922155 433.02015976 287.578125 438.0234375 C286.82639473 443.37627548 285.79800004 448.39798244 282.1171875 452.47265625 C279.49523067 456.12797254 279.16649601 459.29833166 278.625 463.6875 C277.89450097 469.5777915 276.95917505 473.59737605 273.125 478.25 C272.465 478.25 271.805 478.25 271.125 478.25 C270.94324219 478.98605469 270.76148438 479.72210937 270.57421875 480.48046875 C267.92003106 490.78416149 267.92003106 490.78416149 265.125 494.25 C264.46113281 494.50007813 263.79726563 494.75015625 263.11328125 495.0078125 C260.85073691 496.12235734 260.85073691 496.12235734 260.2890625 498.89453125 C260.11117188 499.93996094 259.93328125 500.98539063 259.75 502.0625 C258.69453251 506.9096197 257.95278708 508.98150969 253.66796875 511.78515625 C250.72383574 514.58021923 249.76291531 518.6614098 248.34375 522.38671875 C247.27804273 524.89044769 246.36081779 526.50978854 244.5625 528.5 C242.41427255 530.92364123 241.46161764 532.50033789 240.1875 535.375 C238.29877713 539.41243189 235.91060153 540.88399904 232.125 543.25 C230.74376037 545.21722008 229.41011874 547.21868328 228.125 549.25 C226.45833333 550.91666667 224.79166667 552.58333333 223.125 554.25 C222.63 555.075 222.135 555.9 221.625 556.75 C219.83675658 559.7304057 217.57885625 561.79614375 215.125 564.25 C213.78168346 566.24330842 212.44905988 568.24384866 211.125 570.25 C209.64712409 571.99060941 208.12919252 573.69007403 206.60546875 575.390625 C205.08304917 577.30268758 204.10020909 579.1991218 203 581.375 C200.17285088 586.17930569 195.97932349 587.20399786 190.9296875 589.03125 C186.99336317 590.74174191 185.64255047 592.8439023 183.125 596.25 C181.125 597.25 179.125 598.25 177.125 599.25 C176.1185725 600.91279327 175.11914593 602.57983484 174.125 604.25 C172.41483491 605.59968911 170.63376151 606.78575071 168.8203125 607.9921875 C166.89553064 609.304875 166.89553064 609.304875 165.0625 611.875 C162.72805325 614.73657989 160.51214053 615.85096369 157.125 617.25 C156.465 617.25 155.805 617.25 155.125 617.25 C154.87234375 617.86617187 154.6196875 618.48234375 154.359375 619.1171875 C152.92689836 621.59228954 151.93848754 622.19261621 149.375 623.375 C148.66214844 623.70886719 147.94929687 624.04273438 147.21484375 624.38671875 C145.125 625.25 145.125 625.25 141.9375 626.1875 C138.95954177 627.07893218 138.95954177 627.07893218 136.875 629.625 C133.09875596 633.22959659 127.50261307 636.25 122.125 636.25 C121.76148438 637.178125 121.76148438 637.178125 121.390625 638.125 C119.82955147 640.74606173 118.69113041 641.17718842 115.875 642.25 C110.88931617 644.2921361 106.74244766 646.87516949 102.625 650.375 C98.89637861 652.37247575 96.47821799 652.67755446 92.3125 653.125 C87.61505485 653.67303527 84.55111743 654.20420513 80.8125 657.125 C76.07327679 660.79035428 71.17764619 661.59319446 65.43676758 662.77636719 C60.29220689 663.87165708 55.97251136 665.43193575 51.3984375 668.1015625 C45.2393482 671.21285503 39.17982102 671.56365605 32.4375 671.75 C22.66783153 672.14341543 13.65053056 672.97985882 4.375 676.25 C-2.04628879 678.32289177 -8.41572463 679.03042992 -15.125 679.625 C-16.65205566 679.77001953 -16.65205566 679.77001953 -18.20996094 679.91796875 C-26.0027695 680.5180023 -33.21517925 680.74774133 -39.52734375 675.59765625 C-40.64735757 674.52814834 -41.74243413 673.43198076 -42.8125 672.3125 C-43.37517578 671.73346924 -43.93785156 671.15443848 -44.51757812 670.55786133 C-48.41286647 666.30597027 -50.66258621 662.63294227 -51.0546875 656.734375 C-50.43358731 648.14698976 -45.44069025 642.5314316 -39.875 636.25 C-39.27558594 635.53328125 -38.67617188 634.8165625 -38.05859375 634.078125 C-31.62994605 628.69600135 -22.22457615 629.85556056 -14.32421875 629.68359375 C-8.81121351 629.5174088 -4.17078633 628.92754722 1.125 627.25 C3.05748587 627.0483271 4.99649623 626.90012397 6.9375 626.8125 C11.63304334 626.47751659 15.57728698 625.62229799 20.01953125 624.13671875 C25.23195853 622.64839046 30.57388071 621.74209565 35.90625 620.78393555 C41.04394386 619.81961917 45.39787554 618.48548743 50.125 616.25 C58.54632634 612.4887508 67.80702197 609.25 77.125 609.25 C77.32480469 608.63382813 77.52460937 608.01765625 77.73046875 607.3828125 C79.75714744 604.28318627 81.91612832 604.07413529 85.4375 603.125 C93.10687203 601.31150755 93.10687203 601.31150755 99.3125 596.875 C103.14008318 593.30258903 108.72839103 590.25 114.125 590.25 C114.33769531 589.63898437 114.55039062 589.02796875 114.76953125 588.3984375 C116.64159233 585.43119371 118.53753528 585.03377045 121.8125 583.875 C126.598973 582.02438275 129.86657341 580.11510994 133.5390625 576.5859375 C135.125 575.25 135.125 575.25 138.8125 573.75 C142.84342999 571.92467321 143.81921956 569.93924871 146.125 566.25 C147.79166667 565.25 149.45833333 564.25 151.125 563.25 C151.723125 562.280625 152.32125 561.31125 152.9375 560.3125 C155.45508434 556.78788193 157.34334517 556.01725243 161.171875 554.30859375 C164.27804459 552.62504983 166.02224795 550.03472569 168.125 547.25 C170.70121664 544.54166968 173.20106849 542.19256052 176.1875 539.9375 C179.32044553 537.07118813 180.42994534 534.80985186 182.12890625 531.03125 C183.55701655 528.47745276 185.60234512 527.63746018 188.125 526.25 C188.764375 525.280625 189.40375 524.31125 190.0625 523.3125 C192.125 520.25 192.125 520.25 195.1875 518.375 C198.68569843 515.84438837 199.05583358 514.27712716 200.28125 510.31640625 C201.23208594 507.9877386 202.38605189 506.67788003 204.125 504.875 C207.32076556 501.43641892 208.14031696 498.20821296 209.28515625 493.73046875 C210.44216828 490.31324718 212.37525145 487.96157663 214.64453125 485.19921875 C216.17259111 483.18734046 217.19462008 481.22763271 218.25 478.9375 C219.71731992 475.82555901 220.99486813 473.91940367 224.125 472.25 C224.785 472.25 225.445 472.25 226.125 472.25 C226.30675781 471.44175781 226.48851562 470.63351562 226.67578125 469.80078125 C226.92714844 468.73214844 227.17851563 467.66351562 227.4375 466.5625 C227.68113281 465.50675781 227.92476562 464.45101563 228.17578125 463.36328125 C229.12570972 460.24767223 230.22141997 457.88760832 232.125 455.25 C232.785 455.25 233.445 455.25 234.125 455.25 C234.27195312 454.06664062 234.41890625 452.88328125 234.5703125 451.6640625 C235.72832704 443.22850246 236.86877979 436.58094493 241.7734375 429.44140625 C244.12788711 425.62393159 244.48740411 421.62622633 245.125 417.25 C245.50724091 415.23217035 245.88963034 413.21436779 246.27441406 411.19702148 C247.44312107 404.98118556 248.27889939 398.95874695 248.5625 392.625 C248.86877457 386.93611277 249.94970952 383.91370789 253.125 379.25 C254.91169594 372.58569648 254.55654495 365.42549594 254.75 358.5625 C254.78368683 357.4139151 254.78368683 357.4139151 254.8180542 356.24212646 C255.14980308 344.4401217 255.1192034 332.67543604 254.75 320.875 C254.72867004 320.17887604 254.70734009 319.48275208 254.68536377 318.76553345 C254.46494301 311.86710037 254.14977739 304.97398388 253.7109375 298.0859375 C253.64696777 297.07837402 253.58299805 296.07081055 253.51708984 295.03271484 C252.89990566 290.65247494 251.04312769 287.08439933 249.08984375 283.16796875 C246.26947296 276.86552981 245.99805231 270.32042364 245.43554688 263.51367188 C244.76218792 257.00739462 243.50907493 254.25079495 239.125 249.25 C237.69119452 245.17428767 236.99373984 240.91757805 236.18554688 236.68164062 C234.97941443 231.08264687 233.38001808 227.95557375 229.42895508 223.82543945 C227.47297875 221.46222747 227.35293144 219.31851032 227.1875 216.3125 C226.50505591 210.57570436 224.82066503 208.34366197 220.7890625 204.38671875 C218.68653035 201.6869885 218.23742054 199.40051064 217.5625 196.0625 C216.41325653 190.41499069 214.7542046 188.7681955 210.125 185.25 C209.046875 183.16015625 209.046875 183.16015625 208 180.6875 C205.80091683 175.8350968 202.89412157 172.8188131 199.0625 169.25 C194.42217024 164.92314968 191.91596744 161.44811895 189.9765625 155.296875 C188.63293882 152.06724745 186.06229766 150.96342363 183.125 149.25 C181.78229179 147.25628175 180.44846506 145.2565438 179.125 143.25 C178.320625 142.775625 177.51625 142.30125 176.6875 141.8125 C173.60276622 139.93156477 172.35022167 137.83896922 170.37890625 134.87890625 C168.67345285 132.66341071 166.5150045 131.65948983 164.125 130.25 C162.79166667 128.25 161.45833333 126.25 160.125 124.25 C159.3 123.755 158.475 123.26 157.625 122.75 C155.125 121.25 155.125 121.25 153.1875 118.3125 C150.8708961 114.87269421 148.57672719 113.47924048 145.125 111.25 C144.5475 110.404375 143.97 109.55875 143.375 108.6875 C140.86814833 105.97174403 139.8534575 105.73931185 136.375 104.875 C131.36420972 103.59093887 128.55935729 101.43007602 124.87109375 97.8828125 C123.0791742 96.08907484 123.0791742 96.08907484 120.375 94.625 C118.125 93.25 118.125 93.25 116.5625 90.8125 C113.20237155 87.28005727 109.60827283 86.6542089 105.0078125 85.28515625 C102.125 84.25 102.125 84.25 99.125 81.6875 C95.2618225 78.54866828 91.71075266 78.04786331 86.91796875 77 C83.56571603 76.09981465 81.45474994 74.82936601 79.125 72.25 C79.125 71.59 79.125 70.93 79.125 70.25 C78.0628125 70.07984375 77.000625 69.9096875 75.90625 69.734375 C68.30135044 68.45385271 61.86226463 67.16986306 55.125 63.25 C49.62091793 60.50138616 44.97323067 59.72817731 38.875 59.3125 C30.21700675 58.57038629 22.48009763 57.15339842 15.125 52.25 C12.83786593 51.85928576 10.53409228 51.56310089 8.2265625 51.3203125 C6.84629896 51.16324482 5.46609225 51.00567701 4.0859375 50.84765625 C1.91858544 50.60874714 -0.24904583 50.37509864 -2.41796875 50.15087891 C-4.5175638 49.93049791 -6.61396282 49.68921527 -8.7109375 49.4453125 C-9.96438965 49.31141113 -11.2178418 49.17750977 -12.50927734 49.03955078 C-18.4753414 47.6399968 -21.19494433 43.85006958 -24.875 39.25 C-25.74125 38.63125 -26.6075 38.0125 -27.5 37.375 C-30.72397944 34.49038681 -31.18806774 32.50898002 -31.875 28.25 C-31.95642129 21.82789605 -31.13350089 17.1537283 -26.875 12.25 C-26.215 12.25 -25.555 12.25 -24.875 12.25 C-24.6275 11.63125 -24.38 11.0125 -24.125 10.375 C-22.64729238 7.86289704 -21.43544823 7.48892656 -18.875 6.25 C-18.545 5.26 -18.215 4.27 -17.875 3.25 C-11.51944829 -0.42209655 -7.19665217 -0.92434065 0 0 Z "
        fill="currentColor"
        transform="translate(688.875,267.75)" />
</svg>
